<svg xmlns="http://www.w3.org/2000/svg" xmlns:xlink="http://www.w3.org/1999/xlink" width="869" zoomAndPan="magnify" viewBox="0 0 651.75 651.750002" height="869" preserveAspectRatio="xMidYMid meet" version="1.0"><defs><clipPath id="51d55c7f2f"><path d="M 65.148438 174 L 586.199219 174 L 586.199219 477 L 65.148438 477 Z M 65.148438 174 " clip-rule="nonzero"/></clipPath></defs><g clip-path="url(#51d55c7f2f)"><path fill="#ffffff" d="M 586.339844 468.8125 C 585.402344 469.167969 584.449219 469.480469 583.484375 469.746094 C 582.515625 470.015625 581.539062 470.242188 580.550781 470.421875 C 579.566406 470.601562 578.574219 470.734375 577.574219 470.824219 C 576.574219 470.914062 575.574219 470.960938 574.570312 470.960938 C 573.566406 470.957031 572.566406 470.914062 571.566406 470.820312 C 570.566406 470.730469 569.574219 470.59375 568.585938 470.410156 C 567.601562 470.230469 566.625 470.003906 565.65625 469.734375 C 564.691406 469.464844 563.738281 469.152344 562.800781 468.792969 C 561.863281 468.4375 560.941406 468.039062 560.042969 467.601562 C 559.140625 467.160156 558.257812 466.679688 557.402344 466.160156 C 556.542969 465.640625 555.710938 465.085938 554.902344 464.488281 C 554.09375 463.894531 553.316406 463.265625 552.5625 462.597656 C 551.8125 461.933594 551.09375 461.234375 550.40625 460.503906 C 549.71875 459.773438 549.066406 459.011719 548.449219 458.222656 C 547.828125 457.433594 547.25 456.617188 546.703125 455.773438 C 546.160156 454.929688 545.652344 454.066406 545.1875 453.175781 L 470.265625 349.566406 L 459.410156 335.082031 L 372.480469 453.308594 C 372.039062 454.15625 371.566406 454.988281 371.050781 455.796875 C 370.539062 456.605469 369.992188 457.390625 369.40625 458.148438 C 368.824219 458.90625 368.207031 459.636719 367.558594 460.339844 C 366.910156 461.042969 366.230469 461.71875 365.519531 462.359375 C 364.808594 463 364.070312 463.609375 363.304688 464.183594 C 362.539062 464.761719 361.75 465.300781 360.9375 465.804688 C 360.121094 466.308594 359.289062 466.777344 358.433594 467.203125 C 357.574219 467.632812 356.703125 468.023438 355.8125 468.375 C 354.921875 468.722656 354.015625 469.03125 353.097656 469.300781 C 352.175781 469.570312 351.25 469.796875 350.308594 469.980469 C 349.371094 470.164062 348.421875 470.308594 347.472656 470.40625 C 346.519531 470.507812 345.5625 470.5625 344.605469 470.574219 C 343.648438 470.589844 342.695312 470.558594 341.738281 470.484375 C 340.785156 470.414062 339.835938 470.296875 338.890625 470.136719 C 337.945312 469.980469 337.011719 469.777344 336.085938 469.535156 C 335.160156 469.292969 334.246094 469.007812 333.347656 468.683594 L 445.359375 318.40625 L 341.164062 182.65625 C 342.09375 182.324219 343.03125 182.027344 343.984375 181.773438 C 344.9375 181.519531 345.902344 181.308594 346.871094 181.136719 C 347.84375 180.964844 348.820312 180.832031 349.800781 180.746094 C 350.785156 180.65625 351.769531 180.609375 352.753906 180.605469 C 353.742188 180.601562 354.726562 180.640625 355.710938 180.71875 C 356.691406 180.800781 357.671875 180.921875 358.644531 181.082031 C 359.617188 181.246094 360.582031 181.453125 361.535156 181.699219 C 362.492188 181.941406 363.433594 182.230469 364.363281 182.554688 C 365.296875 182.882812 366.210938 183.246094 367.109375 183.652344 C 368.011719 184.054688 368.890625 184.5 369.753906 184.976562 C 370.613281 185.457031 371.453125 185.972656 372.273438 186.523438 C 373.089844 187.074219 373.882812 187.660156 374.652344 188.28125 C 375.417969 188.898438 376.160156 189.550781 376.871094 190.234375 C 377.582031 190.914062 378.265625 191.625 378.914062 192.367188 C 379.566406 193.109375 380.1875 193.875 380.773438 194.667969 C 381.359375 195.460938 381.910156 196.28125 382.425781 197.121094 L 460.082031 302.007812 L 538.175781 197.554688 C 538.617188 196.71875 539.09375 195.902344 539.609375 195.113281 C 540.125 194.320312 540.675781 193.550781 541.261719 192.808594 C 541.84375 192.066406 542.464844 191.351562 543.113281 190.667969 C 543.761719 189.980469 544.445312 189.324219 545.152344 188.699219 C 545.863281 188.074219 546.601562 187.484375 547.363281 186.929688 C 548.128906 186.371094 548.914062 185.847656 549.726562 185.363281 C 550.539062 184.878906 551.367188 184.429688 552.21875 184.019531 C 553.074219 183.609375 553.941406 183.238281 554.828125 182.910156 C 555.710938 182.578125 556.609375 182.289062 557.523438 182.039062 C 558.433594 181.789062 559.355469 181.582031 560.289062 181.417969 C 561.21875 181.253906 562.15625 181.128906 563.097656 181.050781 C 564.039062 180.96875 564.980469 180.933594 565.925781 180.9375 C 566.871094 180.945312 567.816406 180.992188 568.757812 181.085938 C 569.699219 181.175781 570.632812 181.3125 571.5625 181.488281 C 572.488281 181.664062 573.410156 181.882812 574.316406 182.144531 C 575.226562 182.40625 576.121094 182.707031 577.003906 183.046875 L 536.566406 236.707031 L 481.796875 308.003906 C 481.417969 308.339844 481.058594 308.699219 480.71875 309.074219 C 480.375 309.449219 480.054688 309.84375 479.753906 310.253906 C 479.453125 310.664062 479.175781 311.089844 478.921875 311.527344 C 478.667969 311.96875 478.433594 312.417969 478.226562 312.882812 C 478.019531 313.347656 477.835938 313.820312 477.679688 314.304688 C 477.519531 314.785156 477.390625 315.277344 477.28125 315.773438 C 477.175781 316.269531 477.097656 316.769531 477.042969 317.277344 C 476.988281 317.78125 476.964844 318.289062 476.964844 318.796875 C 476.964844 319.304688 476.988281 319.8125 477.042969 320.316406 C 477.097656 320.820312 477.175781 321.324219 477.28125 321.820312 C 477.390625 322.316406 477.519531 322.804688 477.679688 323.289062 C 477.835938 323.773438 478.019531 324.246094 478.226562 324.710938 C 478.433594 325.171875 478.667969 325.625 478.921875 326.0625 C 479.175781 326.503906 479.453125 326.929688 479.753906 327.339844 C 480.054688 327.75 480.375 328.140625 480.71875 328.515625 C 481.058594 328.894531 481.417969 329.25 481.796875 329.589844 L 586.125 468.832031 Z M 65.195312 316.539062 L 74.3125 271.476562 C 99.375 182.375 201.527344 145.304688 271.800781 200.464844 C 312.953125 232.800781 323.226562 278.578125 321.207031 330.175781 L 89.386719 330.175781 C 85.628906 422.316406 152.125 477.953125 237.144531 449.527344 C 240.574219 448.292969 243.917969 446.851562 247.171875 445.203125 C 250.425781 443.554688 253.566406 441.710938 256.59375 439.671875 C 259.621094 437.636719 262.511719 435.421875 265.261719 433.027344 C 268.015625 430.632812 270.609375 428.078125 273.046875 425.363281 C 275.484375 422.648438 277.746094 419.796875 279.828125 416.800781 C 281.914062 413.808594 283.804688 410.695312 285.507812 407.46875 C 287.207031 404.242188 288.699219 400.921875 289.992188 397.507812 C 291.28125 394.097656 292.355469 390.617188 293.214844 387.070312 C 297.710938 372.609375 305.113281 370.132812 318.710938 374.304688 C 318.144531 378.699219 317.335938 383.050781 316.277344 387.355469 C 315.222656 391.660156 313.925781 395.890625 312.390625 400.050781 C 310.855469 404.207031 309.09375 408.265625 307.097656 412.226562 C 305.105469 416.183594 302.894531 420.019531 300.46875 423.726562 C 298.042969 427.4375 295.414062 430.996094 292.585938 434.410156 C 289.753906 437.820312 286.742188 441.0625 283.546875 444.132812 C 280.351562 447.207031 276.992188 450.085938 273.472656 452.78125 C 269.949219 455.472656 266.289062 457.957031 262.484375 460.234375 C 259.359375 461.945312 256.171875 463.527344 252.921875 464.988281 C 249.671875 466.449219 246.367188 467.777344 243.011719 468.980469 C 239.65625 470.179688 236.261719 471.246094 232.820312 472.179688 C 229.382812 473.113281 225.914062 473.914062 222.414062 474.574219 C 218.910156 475.234375 215.390625 475.757812 211.847656 476.144531 C 208.304688 476.53125 204.753906 476.777344 201.191406 476.882812 C 197.628906 476.988281 194.070312 476.957031 190.507812 476.78125 C 186.949219 476.609375 183.402344 476.296875 179.867188 475.84375 C 176.335938 475.394531 172.824219 474.804688 169.335938 474.078125 C 165.847656 473.351562 162.390625 472.488281 158.972656 471.492188 C 155.550781 470.492188 152.175781 469.363281 148.84375 468.097656 C 145.511719 466.835938 142.234375 465.445312 139.011719 463.921875 C 135.789062 462.402344 132.628906 460.757812 129.535156 458.992188 C 126.441406 457.222656 123.421875 455.335938 120.476562 453.332031 C 117.53125 451.324219 114.667969 449.207031 111.890625 446.980469 C 109.109375 444.75 106.421875 442.414062 103.828125 439.972656 C 98.6875 434.1875 94.046875 428.027344 89.910156 421.488281 C 85.773438 414.949219 82.191406 408.117188 79.164062 400.996094 C 76.136719 393.875 73.703125 386.554688 71.867188 379.039062 C 70.027344 371.523438 68.8125 363.90625 68.210938 356.191406 C 68.210938 351.089844 66.476562 346.3125 65.300781 341.730469 C 65.195312 333.339844 65.144531 324.949219 65.148438 316.558594 Z M 89.667969 310.328125 L 299.316406 310.328125 C 298.011719 243.527344 255.863281 196.144531 199.640625 195.707031 C 137.050781 194.839844 92.273438 241.183594 89.515625 310.023438 Z M 89.667969 310.328125 " fill-opacity="1" fill-rule="nonzero"/></g></svg>