<svg role="img" viewBox="-1.2 -1.2 24 24" xmlns="http://www.w3.org/2000/svg" id="Sfml--Streamline-Simple-Icons.svg" height="24" width="24" style="background-color: #8dc546"><desc>Sfml Streamline Icon: https://streamlinehq.com</desc><title>SFML</title><path d="M10.9683 0.30024C10.00296 0.2808 8.88984 0.7767000000000001 7.1628300000000005 2.0169L2.8458 5.15322C0.2268 7.05609 -0.7551 7.674480000000001 0.62253 11.99592l1.6489800000000001 5.0751c1.00035 3.07872 1.28502 4.20399 5.82075 4.22919H13.428c3.23721 0 4.395600000000001 0.07650000000000001 5.821020000000001 -4.22919l1.6487100000000001 -5.0751c1.00035 -3.0789 1.43127 -4.1562 -2.22327 -6.8427L14.3577 2.0169h-0.00036C12.96621 1.00602 12.06234 0.3222 10.9683 0.30024zm-0.14615999999999998 1.69533c0.058679999999999996 0.00135 0.11727 0.00432 0.17577 0.009000000000000001 0.9705600000000001 0.07479 1.51119 0.57456 2.10609 1.00674l0.01737 0.01737 -1.9152000000000002 7.35156h-0.83313L8.4636 3.02868c0.006030000000000001 -0.0054 0.01062 -0.01233 0.01728 -0.01737 0.69669 -0.5349600000000001 1.37205 -0.96372 2.16981 -1.0125l0.17145000000000002 -0.00324zM14.5152 4.0401h0.00072l0.08064 0.05787 3.48939 2.53422c0.82863 0.5688 1.50984 1.15002 1.73538 2.08296 0.22877999999999998 0.9462599999999999 -0.08523000000000001 1.61514 -0.31248000000000004 2.3144400000000003l-1.89738 5.8554c-0.28494 0.96372 -0.6291 1.78857 -1.44657 2.29131 -0.8291700000000001 0.5099400000000001 -1.5616800000000002 0.42237 -2.2970699999999997 0.42237H7.7112c-1.0053 0.027 -1.89576 -0.03717 -2.62683 -0.65961 -0.74124 -0.6310800000000001 -0.8838 -1.35468 -1.11096 -2.0540700000000003l-1.9035900000000001 -5.8554c-0.33705 -0.9490500000000001 -0.5458500000000001 -1.8189 -0.17937 -2.7078300000000004 0.37107 -0.9 1.0135800000000001 -1.2573 1.60848 -1.68957l3.48903 -2.53422 0.07515000000000001 -0.052110000000000004 0.75222 2.8872000000000004 -0.19089 0.13887 -2.4939 1.8052199999999998c-0.50652 0.3681 -0.6003000000000001 0.45828 -0.64215 0.49185 0.0108 0.05382 0.03267 0.25659000000000004 0.21411 0.7637400000000001l1.9151099999999999 5.89014c0.17892 0.60507 0.24786 0.72306 0.26622 0.7695 0.058679999999999996 0.00756 0.25704000000000005 0.044550000000000006 0.78687 0.02898h6.19677c0.56655 0 0.7437600000000001 -0.01566 0.8097300000000001 -0.01737 0.02376 -0.05121 0.12717 -0.2268 0.27774 -0.74061l1.91529 -5.8959c0.1746 -0.53766 0.21636 -0.7236 0.23139 -0.7753500000000001 -0.0432 -0.04059 -0.18207 -0.19341 -0.6191099999999999 -0.49176000000000003l-2.5227 -1.82844 -0.19674 -0.14463 0.75222 -2.8872000000000004h-0.00009z" fill="#ffffff" stroke-width="1"></path></svg>